<?xml version="1.0" standalone="no"?>
<!DOCTYPE svg PUBLIC "-//W3C//DTD SVG 20010904//EN"
 "http://www.w3.org/TR/2001/REC-SVG-20010904/DTD/svg10.dtd">
<svg version="1.0" xmlns="http://www.w3.org/2000/svg"
 width="260.000000pt" height="260.000000pt" viewBox="0 0 260.000000 260.000000"
 preserveAspectRatio="xMidYMid meet">
<g transform="translate(0.000000,260.000000) scale(0.100000,-0.100000)"
fill="#000000" stroke="none">
<path d="M350 2566 c-153 -43 -276 -167 -316 -319 -11 -41 -13 -156 -11 -547
l2 -495 61 2 c78 2 124 25 194 98 147 153 201 193 296 221 64 18 180 15 244
-7 64 -22 134 -75 229 -172 108 -110 153 -137 236 -141 100 -6 145 17 261 135
54 56 122 116 150 134 132 87 318 84 449 -6 22 -15 88 -74 146 -132 93 -93
112 -107 162 -122 31 -9 71 -15 89 -12 l33 3 3 475 c2 308 -1 496 -8 538 -27
159 -138 284 -304 341 -56 19 -85 20 -964 19 -694 -1 -918 -4 -952 -13z"/>
<path d="M665 1389 c-81 -13 -107 -31 -235 -164 -118 -124 -237 -179 -359
-168 l-52 4 1 -330 c1 -354 4 -380 56 -482 36 -71 118 -147 204 -188 l75 -36
905 -3 c650 -2 922 0 965 8 120 23 247 116 299 219 53 103 56 131 53 481 l-2
325 -35 1 c-126 2 -211 47 -341 179 -119 121 -173 154 -251 156 -95 2 -160
-29 -237 -114 -105 -117 -182 -175 -262 -200 -111 -34 -209 -27 -315 23 -45
22 -87 56 -165 135 -57 59 -121 115 -142 126 -49 25 -112 36 -162 28z"/>
</g>
</svg>
