<?xml version="1.0" standalone="no"?>
<!DOCTYPE svg PUBLIC "-//W3C//DTD SVG 20010904//EN"
 "http://www.w3.org/TR/2001/REC-SVG-20010904/DTD/svg10.dtd">
<svg version="1.0" xmlns="http://www.w3.org/2000/svg"
 width="260.000000pt" height="260.000000pt" viewBox="0 0 260.000000 260.000000"
 preserveAspectRatio="xMidYMid meet">
<g transform="translate(0.000000,260.000000) scale(0.100000,-0.100000)"
fill="#000000" stroke="none">
<path d="M95 2586 c-41 -18 -83 -69 -90 -109 -3 -18 -4 -559 -3 -1204 3 -1165
3 -1172 24 -1199 11 -15 33 -37 48 -48 27 -21 31 -21 1226 -21 1195 0 1199 0
1226 21 15 11 37 33 48 48 21 27 21 31 21 1226 0 1195 0 1199 -21 1226 -11 15
-33 37 -48 48 -27 21 -33 21 -1214 23 -972 2 -1193 0 -1217 -11z m1380 -580
c150 -43 242 -112 291 -219 25 -56 28 -73 28 -167 0 -86 -4 -116 -23 -162 -25
-65 -104 -157 -168 -198 l-42 -27 205 -306 204 -307 -218 0 -218 0 -149 255
-148 255 -49 0 -48 0 0 -255 0 -255 -190 0 -190 0 0 706 0 706 328 -4 c270 -4
337 -8 387 -22z"/>
<path d="M1140 1580 l0 -163 79 5 c127 7 182 53 188 155 7 107 -44 152 -184
161 l-83 5 0 -163z"/>
</g>
</svg>
