<svg width="507" height="451" xmlns="http://www.w3.org/2000/svg">
  <path d="M364.8 246v-23.6c-64.4-8.5-96.6-45.3-96.6-110.3 0-32.8 10.2-59.7 30.5-80.7a104 104 0 0 1 78-31.4A113 113 0 0 1 471 47.4c24 31.6 36 73.5 36 125.8a276 276 0 0 1-57.9 174c-38.6 49.9-91 84.5-157.2 104v-34.7c48.6-42.5 73-99.3 73-170.4zM93 244.4v-20c-28.6-3.1-51.2-14-68-32.9-16.6-18.8-25-42.8-25-72C0 83 10 54 30 32.5 50.2 10.8 77 0 110.4 0c38.3 0 69.2 16.3 93 48.8 23.6 32.5 35.5 75.2 35.5 128 0 133-72.6 224.5-217.8 274.4v-34.7c48-37.7 72-95 72-172.2z" fill="#FAFAFF" fill-rule="evenodd"/>
</svg>
